<svg id="Capa_1" data-name="Capa 1" xmlns="http://www.w3.org/2000/svg" viewBox="0 0 200 200"><defs><style>.cls-1{fill:#0389ff;}.cls-2{fill:#fff;}</style></defs><title>img-logo-001</title><path class="cls-1" d="M200,158.92A41.08,41.08,0,0,1,158.92,200H41.09A41.09,41.09,0,0,1,0,158.92V41.08A41.09,41.09,0,0,1,41.09,0H158.92A41.08,41.08,0,0,1,200,41.08Z"/><path class="cls-2" d="M42.39,158.12a8.56,8.56,0,0,1-3.11-3.07,8.13,8.13,0,0,1-1.14-4.2v-4.7a8.13,8.13,0,0,1,1.14-4.2,8.56,8.56,0,0,1,3.11-3.07,8.71,8.71,0,0,1,8.58,0,8.45,8.45,0,0,1,3.1,3.07,8,8,0,0,1,1.15,4.2v4.7a8,8,0,0,1-1.15,4.2,8.64,8.64,0,0,1-11.68,3.07Zm7.29-4.27a4.12,4.12,0,0,0,1.24-3v-4.7a4.24,4.24,0,1,0-8.48,0v4.7a4.25,4.25,0,0,0,7.24,3Z"/><path class="cls-2" d="M60.35,158.57a.76.76,0,0,1-.21-.54V139a.73.73,0,0,1,.21-.54.77.77,0,0,1,.54-.22h2.8a.74.74,0,0,1,.54.22.7.7,0,0,1,.22.54v1.69a7.55,7.55,0,0,1,2.38-2.14,6.11,6.11,0,0,1,3-.77,7.05,7.05,0,0,1,3.68,1,6.84,6.84,0,0,1,2.56,2.69,8,8,0,0,1,.94,3.88V158a.77.77,0,0,1-.22.54.73.73,0,0,1-.54.21h-2.8a.72.72,0,0,1-.53-.21.73.73,0,0,1-.22-.54V145.82a4.07,4.07,0,0,0-1-2.92,3.6,3.6,0,0,0-2.73-1,4.27,4.27,0,0,0-3.35,1.39A5.43,5.43,0,0,0,64.45,147v11a.73.73,0,0,1-.76.75h-2.8A.76.76,0,0,1,60.35,158.57Z"/><path class="cls-2" d="M86,157.63a8.57,8.57,0,0,1-4.26-7.43v-3.87A8.57,8.57,0,0,1,86,138.9a8.56,8.56,0,0,1,8.57,0,8.57,8.57,0,0,1,4.26,7.43v2.4a1.5,1.5,0,0,1-.45,1.1,1.49,1.49,0,0,1-1.1.45H86v.17a4.23,4.23,0,0,0,4.24,4.24H96a.7.7,0,0,1,.54.22.73.73,0,0,1,.22.53V158a.77.77,0,0,1-.22.54.73.73,0,0,1-.54.21h-5.7A8.26,8.26,0,0,1,86,157.63Zm8.52-11.23v-.32a4.24,4.24,0,1,0-8.47,0v.32Z"/><path class="cls-2" d="M107.14,158.1A8.59,8.59,0,0,1,104,155a8.38,8.38,0,0,1-1.15-4.31v-4.34a8.54,8.54,0,0,1,12-7.85,8.2,8.2,0,0,1,2.83,2.07.77.77,0,0,1,.25.57,1,1,0,0,1-.32.72l-1.54,1.54a.79.79,0,0,1-.58.25.81.81,0,0,1-.61-.32,4.73,4.73,0,0,0-3.48-1.4,4.22,4.22,0,0,0-4.23,4.24v4.7a4.2,4.2,0,0,0,4.23,4.23,4.69,4.69,0,0,0,3.48-1.4.84.84,0,0,1,.61-.32.83.83,0,0,1,.58.25l1.54,1.55a1,1,0,0,1,.32.72.78.78,0,0,1-.25.57,8.3,8.3,0,0,1-2.83,2.06,8.5,8.5,0,0,1-7.74-.41Z"/><path class="cls-2" d="M125.63,158.28a6.86,6.86,0,0,1-2.57-2.69,8,8,0,0,1-.93-3.88V139a.73.73,0,0,1,.21-.54.77.77,0,0,1,.54-.22h2.8a.74.74,0,0,1,.54.22.73.73,0,0,1,.21.54v12.2a4.12,4.12,0,0,0,1,2.93,3.6,3.6,0,0,0,2.73,1,4.3,4.3,0,0,0,3.36-1.38,5.49,5.49,0,0,0,1.24-3.79V139a.73.73,0,0,1,.21-.54.76.76,0,0,1,.54-.22h2.8a.74.74,0,0,1,.54.22.73.73,0,0,1,.21.54V158a.76.76,0,0,1-.21.54.73.73,0,0,1-.54.21h-2.8a.75.75,0,0,1-.54-.21.76.76,0,0,1-.21-.54v-1.69a7.59,7.59,0,0,1-2.39,2.14,6.15,6.15,0,0,1-3,.77A7.12,7.12,0,0,1,125.63,158.28Z"/><path class="cls-2" d="M145,165.49a.69.69,0,0,1-.22-.53V139a.7.7,0,0,1,.22-.54.73.73,0,0,1,.53-.22h2.34a.77.77,0,0,1,.54.22.73.73,0,0,1,.21.54v1.61a6.15,6.15,0,0,1,2.32-2.11,6.29,6.29,0,0,1,3-.72,7.39,7.39,0,0,1,4,1.13,8.32,8.32,0,0,1,3,3,8.06,8.06,0,0,1,1.09,4.09v5a8.22,8.22,0,0,1-1.07,4.09,8.33,8.33,0,0,1-2.91,3,7.53,7.53,0,0,1-4,1.13,6.23,6.23,0,0,1-2.57-.56,7.16,7.16,0,0,1-2.24-1.6V165a.75.75,0,0,1-.76.75h-2.8A.69.69,0,0,1,145,165.49Zm11.36-11.61a4.08,4.08,0,0,0,1.24-3v-4.78a4.23,4.23,0,0,0-4.24-4.24,4.19,4.19,0,0,0-3,1.24,4.09,4.09,0,0,0-1.25,3v4.78a4.06,4.06,0,0,0,1.25,3,4.15,4.15,0,0,0,3,1.24A4.08,4.08,0,0,0,156.32,153.88Z"/><path class="cls-2" d="M129.51,51.06c-1.34-6.24-1.16-15.31-8.6-16.08-8.69-.89-17.89-.3-26.63-.29-4.81,0-12.3-1.23-16.88.62s-5.16,10.41-5.67,15.23c-4.49,1-7,3.79-3.73,9.42a.81.81,0,0,0,.12.14,1.55,1.55,0,0,0,.24.27l.2.14a1.46,1.46,0,0,0,.31.14l.27.05a1.7,1.7,0,0,0,.22,0h1.91c2.57,17.34,4.67,34.74,7.16,52.08.63,4.37.09,10,5,11.76,2.8,1,6.56.46,9.48.51,4.67.07,9.35.11,14,.09,3.59,0,10,1,12.82-2,3-3.32,3-11.92,3.69-16.15,0-.14,0-.29.07-.43a1.09,1.09,0,0,0,0-.26c2.56-15,4.45-30.07,6.86-45.08H131a1.49,1.49,0,0,0,1.19-.61,1.6,1.6,0,0,0,.34-.55C134.53,54.79,133.26,52.08,129.51,51.06Zm-52-11.18c1.17-1.78.48-1.3,3.14-1.75,4.66-.79,9.94-.28,14.64-.28,5.82,0,11.64.09,17.45.18,3.65,0,6.39-.55,9.17,1.95s3.49,6.78,4.23,10.59c-7.16-.37-14.38-.46-21.55-.46-9.86,0-19.84-.38-29.68,0C75.31,46.94,75.89,42.41,77.55,39.88Zm1.68,13.41c4.25,0,8.51.08,12.76.07,4.94,0,9.89-.1,14.83-.07q6.66,0,13.3.28c2.12.07,4.25.06,6.36.18,3.43.19,4.33,1.25,3.41,4.34-19.85.62-39.68-.73-59.53-.52C68.24,52.49,77.4,53.29,79.23,53.29Zm41.38,51.42c-6.82,1.07-13.53.51-20.41.35-6.6-.15-13.16,0-19.75-.47l-.36-2.66c-1.26-9.23-2.49-18.46-3.75-27.68,16.27-.73,32.69,1.08,48.88,0C124.16,81.51,123.14,88.77,122,96,121.56,98.91,121.1,101.81,120.61,104.71Zm-1.56,8.67c-.32,1.63-.31,4.82-1.22,6.28-2.08,3.31-6,2.32-9.51,2.34-6,0-13.78,1.08-19.68-.16-7.71-1.62-6.49-5.22-7.36-11.29-.13-.92-.25-1.83-.38-2.75,12.53,1,26.6,2,39.12.16C119.7,109.77,119.4,111.58,119.05,113.38Zm6.64-42.31c-16.49,1.14-33.23-.77-49.8,0-.48-3.46-1-6.92-1.46-10.38,17.59,0,35.16,1,52.75.6Q126.42,66.18,125.69,71.07Z"/></svg>